<?xml version="1.0" encoding="UTF-8"?><svg id="Product" xmlns="http://www.w3.org/2000/svg" viewBox="0 0 221.89 80.74"><defs><style>.cls-1{fill:#badfe1;}.cls-2{fill:#4ebcc2;}.cls-3{fill:#fbb800;}.cls-4{fill:#078;}.cls-5{fill:#009db5;}</style></defs><path class="cls-3" d="M64.56,64h-15.49c-.69,0-1.25-.56-1.25-1.25V17.25c0-.69.56-1.25,1.25-1.25h15.49c.69,0,1.25.56,1.25,1.25v45.49c0,.69-.56,1.25-1.26,1.25"/><rect class="cls-2" x="29.8" y="16" width="6.01" height="48"/><rect class="cls-5" x="23.81" y="16" width="6.01" height="48"/><rect class="cls-4" x="17.82" y="16" width="6.01" height="48"/><rect class="cls-1" x="35.8" y="16" width="6.01" height="48"/><path class="cls-4" d="M96.98,46.4c0,1.86-.28,3.53-.83,5.02-.56,1.48-1.34,2.75-2.35,3.79-1.01,1.04-2.22,1.84-3.63,2.4-1.41.56-2.97.83-4.67.83h-8.79v-24.05h8.79c1.7,0,3.26.28,4.67.83,1.41.56,2.62,1.35,3.63,2.4,1.01,1.04,1.79,2.31,2.35,3.79.56,1.48.83,3.15.83,5ZM95.17,46.4c0-1.68-.23-3.17-.7-4.49-.46-1.31-1.12-2.43-1.97-3.33-.85-.91-1.87-1.6-3.06-2.07-1.19-.48-2.5-.71-3.94-.71h-7.04v21.23h7.04c1.44,0,2.75-.24,3.94-.71s2.21-1.17,3.06-2.07c.85-.91,1.51-2.02,1.97-3.33.46-1.31.7-2.82.7-4.51Z"/><path class="cls-4" d="M102.11,49.3v.32c0,1.27.15,2.39.44,3.35.29.96.71,1.77,1.26,2.42.54.65,1.2,1.14,1.97,1.47.77.33,1.63.49,2.58.49.85,0,1.59-.09,2.21-.28.62-.19,1.15-.4,1.57-.63.43-.23.76-.44,1.01-.63.25-.19.43-.28.54-.28.15,0,.26.06.34.17l.44.54c-.27.34-.63.66-1.08.95-.45.29-.95.55-1.5.76-.55.21-1.14.38-1.77.5-.63.12-1.26.19-1.9.19-1.16,0-2.21-.2-3.16-.6-.95-.4-1.77-.99-2.45-1.76-.68-.77-1.2-1.71-1.57-2.83-.37-1.12-.55-2.39-.55-3.83,0-1.21.17-2.33.52-3.36.35-1.03.84-1.91,1.5-2.65.65-.74,1.45-1.32,2.4-1.74.95-.42,2.02-.63,3.22-.63.95,0,1.84.16,2.65.49.82.33,1.52.81,2.12,1.44.6.63,1.07,1.4,1.42,2.32.35.92.52,1.97.52,3.16,0,.25-.03.42-.1.51-.07.09-.18.14-.34.14h-12.31ZM113.4,48.27c0-.91-.13-1.72-.38-2.44s-.61-1.33-1.08-1.83c-.46-.5-1.02-.88-1.66-1.15-.64-.27-1.35-.4-2.12-.4-.87,0-1.65.14-2.35.41-.69.27-1.29.66-1.79,1.17-.5.51-.91,1.12-1.22,1.84s-.51,1.51-.61,2.4h11.2Z"/><path class="cls-4" d="M128.56,43.61c-.09.16-.22.24-.39.24-.12,0-.28-.07-.48-.21-.19-.14-.45-.3-.77-.48-.32-.18-.72-.33-1.2-.48-.48-.14-1.05-.21-1.73-.21-.61,0-1.17.09-1.67.26-.5.18-.94.41-1.29.71-.36.29-.63.64-.82,1.03-.19.39-.29.8-.29,1.23,0,.53.14.97.41,1.33.27.35.63.65,1.06.9.44.25.94.46,1.5.65.57.18,1.14.36,1.73.54.58.18,1.16.38,1.73.6.57.22,1.07.5,1.5.82.44.33.79.73,1.06,1.21.27.48.41,1.05.41,1.73,0,.74-.13,1.42-.39,2.06-.26.63-.64,1.18-1.15,1.65-.5.46-1.12.83-1.86,1.1-.74.27-1.58.41-2.53.41-1.19,0-2.22-.19-3.08-.57-.86-.38-1.63-.88-2.31-1.49l.37-.58c.06-.09.12-.16.2-.2s.17-.07.3-.07c.15,0,.33.09.54.27.21.18.49.38.84.59.35.21.78.41,1.3.59.52.18,1.15.27,1.91.27.71,0,1.34-.1,1.89-.3s1-.47,1.36-.81c.36-.34.64-.74.83-1.2s.28-.94.28-1.45c0-.57-.14-1.04-.41-1.41-.27-.37-.63-.69-1.07-.95-.44-.26-.94-.48-1.5-.66-.56-.18-1.14-.36-1.73-.54-.59-.18-1.16-.38-1.73-.59s-1.06-.49-1.5-.82c-.44-.33-.8-.73-1.07-1.2s-.41-1.06-.41-1.76c0-.6.13-1.18.39-1.73.26-.56.63-1.04,1.11-1.46.48-.42,1.07-.75,1.76-1,.69-.25,1.47-.37,2.33-.37,1.03,0,1.95.15,2.75.44.8.29,1.53.75,2.18,1.36l-.34.56Z"/><path class="cls-4" d="M136.21,35.69c0,.2-.04.39-.13.57-.08.18-.2.33-.33.47-.14.14-.29.24-.48.32-.18.08-.37.12-.58.12s-.4-.04-.58-.12c-.18-.08-.34-.19-.48-.32-.14-.14-.24-.29-.32-.47-.08-.18-.12-.37-.12-.57s.04-.4.12-.59c.08-.19.19-.35.32-.48.14-.14.29-.24.48-.32.18-.08.37-.12.58-.12s.4.04.58.12c.18.08.34.19.48.32.14.14.25.3.33.48.09.19.13.38.13.59ZM135.51,41.52v16.92h-1.61v-16.92h1.61Z"/><path class="cls-4" d="M154.89,42.27v.56c0,.25-.16.4-.48.46l-2.58.19c.32.43.56.91.73,1.44.17.53.26,1.11.26,1.73,0,.82-.14,1.56-.43,2.22s-.7,1.23-1.22,1.7-1.16.84-1.9,1.1c-.74.26-1.56.39-2.46.39-.96,0-1.84-.15-2.63-.44-.48.27-.85.59-1.13.96-.28.37-.42.73-.42,1.1,0,.49.17.86.52,1.12.35.26.8.45,1.36.57.56.12,1.2.2,1.92.23.72.03,1.45.07,2.2.11.75.04,1.48.11,2.2.21s1.36.28,1.92.54,1.01.61,1.36,1.07.52,1.07.52,1.83c0,.7-.18,1.38-.53,2.02-.35.65-.86,1.22-1.52,1.72-.66.5-1.46.9-2.41,1.2-.94.3-2,.45-3.16.45s-2.23-.12-3.13-.37c-.9-.24-1.65-.57-2.25-.99-.61-.41-1.06-.89-1.37-1.44-.31-.54-.46-1.12-.46-1.73,0-.9.29-1.66.88-2.3.59-.64,1.39-1.14,2.41-1.5-.57-.19-1.02-.47-1.37-.84s-.52-.87-.52-1.5c0-.24.04-.49.14-.75.09-.26.23-.52.41-.77.18-.25.4-.5.66-.72s.55-.43.88-.61c-.8-.46-1.43-1.08-1.88-1.85-.45-.77-.67-1.67-.67-2.7,0-.82.14-1.56.43-2.22s.7-1.23,1.23-1.71,1.17-.84,1.91-1.1,1.57-.39,2.47-.39c.75,0,1.44.09,2.07.27.63.18,1.19.44,1.69.77h4.33ZM153.13,59.57c0-.53-.14-.96-.42-1.28-.28-.32-.65-.58-1.11-.76s-1-.31-1.61-.38c-.61-.07-1.24-.13-1.9-.16-.66-.03-1.33-.07-2-.1-.67-.03-1.3-.1-1.89-.2-.43.17-.83.37-1.19.59-.36.22-.67.47-.94.76-.26.28-.46.59-.61.93-.15.33-.22.69-.22,1.08,0,.5.13.96.38,1.39.25.43.63.79,1.12,1.11.49.31,1.1.56,1.81.74.71.18,1.54.27,2.46.27.86,0,1.66-.1,2.4-.29.74-.19,1.39-.46,1.94-.82.55-.35.98-.77,1.29-1.26.31-.49.47-1.02.47-1.6ZM146.8,50.95c.73,0,1.37-.1,1.94-.31.57-.21,1.04-.5,1.43-.88.38-.37.68-.82.88-1.34.2-.52.31-1.1.31-1.73s-.1-1.22-.31-1.74c-.21-.53-.51-.98-.9-1.35s-.87-.66-1.43-.87c-.56-.2-1.2-.31-1.91-.31s-1.35.1-1.91.31-1.04.49-1.43.87c-.39.37-.69.82-.89,1.35-.2.53-.31,1.11-.31,1.74s.1,1.21.31,1.73c.2.52.5.97.89,1.34.39.37.87.67,1.43.88.56.21,1.2.31,1.91.31Z"/><path class="cls-4" d="M160.18,44.48c.78-.97,1.69-1.76,2.71-2.35,1.03-.59,2.17-.88,3.43-.88.93,0,1.75.15,2.46.44.71.29,1.29.72,1.76,1.27.46.56.82,1.22,1.05,2.01.24.78.36,1.67.36,2.65v10.81h-1.63v-10.81c0-1.59-.36-2.83-1.09-3.73s-1.83-1.35-3.31-1.35c-1.1,0-2.13.28-3.09.84-.96.56-1.81,1.34-2.56,2.34v12.72h-1.63v-16.92h.9c.28,0,.45.14.49.42l.15,2.53Z"/><path class="cls-4" d="M177.91,49.3v.32c0,1.27.15,2.39.44,3.35.29.96.71,1.77,1.26,2.42.54.65,1.2,1.14,1.97,1.47.77.33,1.63.49,2.58.49.85,0,1.59-.09,2.21-.28s1.15-.4,1.57-.63c.43-.23.76-.44,1.01-.63.25-.19.43-.28.54-.28.15,0,.26.06.34.17l.44.54c-.27.34-.63.66-1.08.95-.45.29-.95.55-1.5.76-.55.21-1.14.38-1.77.5-.63.12-1.26.19-1.89.19-1.16,0-2.21-.2-3.16-.6-.95-.4-1.77-.99-2.45-1.76-.68-.77-1.2-1.71-1.57-2.83-.37-1.12-.55-2.39-.55-3.83,0-1.21.17-2.33.52-3.36.35-1.03.84-1.91,1.5-2.65.65-.74,1.45-1.32,2.4-1.74.95-.42,2.02-.63,3.22-.63.95,0,1.84.16,2.65.49.82.33,1.52.81,2.12,1.44.6.63,1.07,1.4,1.42,2.32s.52,1.97.52,3.16c0,.25-.04.42-.1.51-.07.09-.18.14-.34.14h-12.31ZM189.2,48.27c0-.91-.13-1.72-.38-2.44-.25-.72-.61-1.33-1.08-1.83-.46-.5-1.02-.88-1.66-1.15-.64-.27-1.35-.4-2.12-.4-.87,0-1.65.14-2.35.41-.69.27-1.29.66-1.79,1.17-.5.51-.91,1.12-1.22,1.84s-.51,1.51-.61,2.4h11.2Z"/><path class="cls-4" d="M196.61,45.6c.26-.69.56-1.31.89-1.84.33-.54.72-.99,1.16-1.37s.92-.66,1.46-.86c.54-.2,1.14-.3,1.79-.3.35,0,.7.03,1.04.09.34.06.64.17.9.33l-.14,1.12c-.06.18-.16.27-.32.27-.14,0-.34-.04-.62-.12s-.64-.12-1.1-.12c-.66,0-1.24.1-1.74.3-.5.2-.96.5-1.36.89-.4.4-.75.89-1.05,1.47-.3.58-.58,1.26-.83,2.01v10.95h-1.63v-16.92h.87c.19,0,.33.04.41.12s.13.22.15.41l.12,3.55Z"/><path class="cls-4" d="M77.61,30.18c-.49,0-.89-.4-.89-.89v-6.75c0-.49.4-.89.89-.89s.89.4.89.89v6.75c0,.49-.4.89-.89.89Z"/><path class="cls-4" d="M85.79,30.18c-.29,0-.57-.15-.73-.39l-3.09-4.46v3.97c0,.48-.4.88-.88.88s-.88-.4-.88-.88v-6.78c0-.48.4-.88.88-.88.3,0,.55.13.72.38l3.1,4.5v-3.99c0-.48.4-.88.88-.88s.88.4.88.88v6.78c0,.48-.4.88-.88.88Z"/><path class="cls-4" d="M89.26,30.18c-.49,0-.89-.4-.89-.89v-6.66c0-.49.4-.89.89-.89h3.68c.46,0,.82.36.82.82s-.36.82-.82.82h-2.78v1.76h2.02c.45,0,.81.36.81.81s-.36.81-.81.81h-2.02v2.52c0,.49-.4.89-.89.89Z"/><path class="cls-4" d="M98.82,30.25c-2.55,0-3.95-1.54-3.95-4.34s1.36-4.35,3.95-4.35,3.95,1.5,3.95,4.35-1.4,4.34-3.95,4.34ZM98.82,23.21c-1.44,0-2.11.86-2.11,2.7s.67,2.69,2.11,2.69,2.11-.85,2.11-2.69-.67-2.7-2.11-2.7Z"/><path class="cls-4" d="M109.24,30.18c-.27,0-.54-.13-.7-.33l-2.08-2.81h-.45v2.24c0,.49-.4.89-.89.89s-.89-.4-.89-.89v-6.66c0-.49.4-.89.89-.89h2.25c1.59,0,2.7,1.1,2.7,2.67,0,1.04-.56,2.15-1.64,2.48l1.52,1.85c.13.17.19.35.19.55,0,.49-.4.89-.89.89ZM106.01,25.42h1.38c.62,0,.84-.52.84-1.02,0-.24-.06-1.03-.87-1.03h-1.35v2.04Z"/><path class="cls-4" d="M118.62,30.18c-.48,0-.88-.4-.88-.88v-3.49l-1.46,2.59c-.15.27-.44.44-.76.44s-.61-.17-.76-.44l-1.46-2.59v3.49c0,.48-.4.88-.88.88s-.88-.4-.88-.88v-6.78c0-.48.4-.88.88-.88.34,0,.61.17.78.49l2.31,4.15,2.32-4.15c.18-.32.45-.49.79-.49.48,0,.88.4.88.88v6.78c0,.48-.4.88-.88.88Z"/><path class="cls-4" d="M127.22,30.18c-.36,0-.68-.22-.83-.58l-.67-1.58h-2.57l-.66,1.58c-.15.36-.47.58-.83.58-.48,0-.88-.4-.88-.88,0-.07,0-.2.06-.33l2.78-6.77c.11-.27.39-.55.82-.55s.7.29.82.55l2.78,6.78c.05.13.06.26.06.33,0,.48-.4.88-.88.88ZM123.78,26.35h1.32l-.66-1.69-.66,1.69Z"/><path class="cls-4" d="M131.04,30.18c-.49,0-.89-.4-.89-.89v-5.93h-1.59c-.45,0-.81-.36-.81-.81s.36-.81.81-.81h4.97c.45,0,.81.36.81.81s-.36.81-.81.81h-1.59v5.93c0,.49-.4.89-.89.89Z"/><path class="cls-4" d="M136.53,30.18c-.49,0-.89-.4-.89-.89v-6.75c0-.49.4-.89.89-.89s.89.4.89.89v6.75c0,.49-.4.89-.89.89Z"/><path class="cls-4" d="M142.83,30.25c-2.55,0-3.95-1.54-3.95-4.34s1.36-4.35,3.95-4.35,3.95,1.5,3.95,4.35-1.4,4.34-3.95,4.34ZM142.83,23.21c-1.44,0-2.11.86-2.11,2.7s.67,2.69,2.11,2.69,2.11-.85,2.11-2.69-.67-2.7-2.11-2.7Z"/><path class="cls-4" d="M153.76,30.18c-.29,0-.57-.15-.73-.39l-3.09-4.46v3.97c0,.48-.4.88-.88.88s-.88-.4-.88-.88v-6.78c0-.48.4-.88.88-.88.3,0,.56.13.72.38l3.1,4.5v-3.99c0-.48.4-.88.88-.88s.88.4.88.88v6.78c0,.48-.4.88-.88.88Z"/><path class="cls-4" d="M162.69,30.25c-1.53,0-2.69-.77-3.16-1.54-.08-.13-.13-.29-.13-.44,0-.47.37-.85.84-.85.35,0,.54.19.67.32.56.56,1.15.83,1.78.83,1.22,0,1.38-.47,1.38-.87,0-.57-.61-.8-1.61-1.13-1.2-.4-2.7-.89-2.7-2.64,0-1.14.77-2.37,2.92-2.37,1.24,0,2.33.46,2.85,1.2.1.16.16.33.16.5,0,.46-.38.84-.85.84-.21,0-.42-.1-.65-.32-.36-.35-.94-.57-1.51-.57-.71,0-1.13.27-1.13.72s.57.68,1.49.99c1.25.41,2.81.92,2.81,2.78,0,1.62-1.15,2.54-3.17,2.54Z"/><path class="cls-4" d="M170.06,30.18c-.49,0-.89-.4-.89-.89v-2.97l-2.22-3.31c-.09-.12-.14-.3-.14-.48,0-.49.4-.89.89-.89.31,0,.58.15.75.41l1.6,2.52,1.6-2.51c.16-.26.44-.42.75-.42.49,0,.89.4.89.89,0,.19-.05.37-.15.49l-2.21,3.3v2.97c0,.49-.4.89-.89.89Z"/><path class="cls-4" d="M177.33,30.25c-1.53,0-2.69-.77-3.16-1.54-.08-.13-.13-.29-.13-.44,0-.47.37-.85.83-.85.35,0,.54.19.67.32.56.56,1.15.83,1.78.83,1.22,0,1.38-.47,1.38-.87,0-.57-.61-.8-1.61-1.13-1.2-.4-2.69-.89-2.69-2.64,0-1.14.77-2.37,2.92-2.37,1.24,0,2.33.46,2.85,1.2.1.15.16.33.16.5,0,.46-.38.84-.85.84-.21,0-.42-.1-.65-.32-.36-.35-.94-.57-1.51-.57-.71,0-1.13.27-1.13.72s.57.68,1.49.99c1.25.41,2.81.92,2.81,2.78,0,1.62-1.15,2.54-3.17,2.54Z"/><path class="cls-4" d="M184.42,30.18c-.49,0-.89-.4-.89-.89v-5.93h-1.59c-.45,0-.81-.36-.81-.81s.36-.81.81-.81h4.97c.45,0,.81.36.81.81s-.36.81-.81.81h-1.59v5.93c0,.49-.4.89-.89.89Z"/><path class="cls-4" d="M193.72,30.09h-3.81c-.49,0-.89-.4-.89-.89v-6.56c0-.49.4-.89.89-.89h3.68c.46,0,.82.36.82.82s-.36.82-.82.82h-2.78v1.69h2.02c.45,0,.81.36.81.81s-.36.81-.81.81h-2.02v1.75h2.91c.46,0,.82.36.82.82s-.36.82-.82.82Z"/><path class="cls-4" d="M202.97,30.18c-.48,0-.88-.4-.88-.88v-3.49l-1.46,2.59c-.15.27-.44.44-.76.44s-.61-.17-.76-.44l-1.46-2.59v3.49c0,.48-.4.88-.88.88s-.88-.4-.88-.88v-6.78c0-.48.4-.88.88-.88.34,0,.61.17.79.49l2.31,4.15,2.32-4.15c.18-.32.45-.49.78-.49.48,0,.88.4.88.88v6.78c0,.48-.4.88-.88.88Z"/></svg>